# xmcd
#
# Track frame offsets:
#	150
#	14646
#	27445
#	44853
#	57045
#	69561
#	84122
#	101373
#	118373
#	136923
#	150147
#	152465
#	167762
#
# Disc length: 2615 seconds
#
# Revision: 0
# Processed by: cddbd v1.5.2PL0 Copyright (c) Steve Scherf et al.
# Submitted via: EasyCDDAExtractor 8.2.3.1
#
DISCID=9f0a350d
DTITLE=CUB KODA and The Points - Noise Monkeys
DYEAR=1999
DGENRE=Blues
TTITLE0=Fast Food-Slow Death
TTITLE1=Look At That White Girl Dance
TTITLE2=Pusherman Of Love
TTITLE3=Next Time
TTITLE4=He Couldn't Say No
TTITLE5=Forty Days
TTITLE6=Spit It On The Floor
TTITLE7=Yommo Yommo ... Yow!
TTITLE8=Nicotine and Caffeine
TTITLE9=The Fang
TTITLE10=Intro to Double Mirror
TTITLE11=Double Mirror Wraparound Shades
TTITLE12=Fire and Brimstone
EXTD=
EXTT0=
EXTT1=
EXTT2=
EXTT3=
EXTT4=
EXTT5=
EXTT6=
EXTT7=
EXTT8=
EXTT9=
EXTT10=
EXTT11=
EXTT12=
PLAYORDER=
